<?xml version="1.0" encoding="utf-8"?>
<!-- Generator: Adobe Illustrator 25.4.1, SVG Export Plug-In . SVG Version: 6.00 Build 0)  -->
<svg version="1.1" id="Calque_1" xmlns="http://www.w3.org/2000/svg" xmlns:xlink="http://www.w3.org/1999/xlink" x="0px" y="0px"
	 viewBox="0 0 200 50" style="enable-background:new 0 0 200 50;" xml:space="preserve">
<style type="text/css">
	.st0{fill:#FFFFFF;}
</style>
<g>
	<path class="st0" d="M69.6,14.8v3.9l-6.4,0.3v-3.6c0-3.5-1.3-5.1-3.8-5.1c-2.4,0-3.8,1.6-3.8,4.5v23.9c0,2.9,1.3,4.5,3.8,4.5
		c2.4,0,3.8-1.6,3.8-5.1v-4.9l6.4,0.3v5.3c0,6.6-3.8,10.5-10.3,10.5c-6.5,0-10.2-3.9-10.2-10.5V14.8c0-6.6,3.8-10.5,10.2-10.5
		C65.8,4.3,69.6,8.2,69.6,14.8z"/>
	<path class="st0" d="M84.8,4.9c7.1,0,11,3.9,11,11.1v21.7c0,7.2-3.9,11.1-11,11.1h-9.5V4.9H84.8z M81.9,42.6h2.6
		c3.2,0,4.6-1.7,4.6-5.4V16.4c0-3.7-1.4-5.4-4.6-5.4h-2.6V42.6z"/>
	<path class="st0" d="M113.2,48.8h-6.6V28.9l-9.2-24h7l5.6,15.5h0.1l5.3-15.5h6.9L113.2,29V48.8z"/>
	<path class="st0" d="M142.9,42.5v6.3h-17.7V4.9h6.6v37.6H142.9z"/>
	<path class="st0" d="M161.7,48.8l-1.4-10h-7.3l-1.4,10h-6.6l7.6-43.9h8.5l7.6,43.9H161.7z M153.8,32.8h5.6l-2.7-18.5h-0.2
		L153.8,32.8z"/>
	<path class="st0" d="M188.3,48.8l-8.7-29.1h-0.1v29.1h-6.3V4.9h7.4l7.8,26.1h0.1V4.9h6.3v43.9H188.3z"/>
	<path class="st0" d="M45.7,48.1c-0.7-1.5-1.4-2.9-2.2-4.3c-1.8-3.6-3.6-7.3-5.3-10.9c-1.8-3.6-3.7-7.3-5.6-11.1c2.8,0,5.3,0,7.9,0
		c1.6-0.4,2.7-1.3,3.3-2.7c0.4-2.7-0.2-3.9-2.5-5.3c-0.9,0-1.5-0.3-2.1-1c-0.8-1.1-2-1.3-3.3-0.9c-0.2-0.1-0.6-0.1-0.7-0.3
		c-1.6-2.2-5.3-2.2-6.8,0.6c0,0.1-0.1,0.2-0.3,0.4c-0.5-1-0.9-1.9-1.3-2.8c-0.7-1.4-1.4-2.9-2.2-4.3c-0.2-0.4-0.6-0.7-0.9-1.1
		c-0.3,0.4-0.6,0.7-0.9,1.2s-0.6,1-0.8,1.5c-0.8,1.6-1.7,3.3-2.5,4.9c0,0.1,0,0.2,0,0.3c-0.8,1.6-1.7,3.1-2.5,4.7
		c-0.8,1.7-1.7,3.3-2.5,5c-0.7,1.4-1.4,2.8-2.1,4.2c-0.8,1.7-1.7,3.4-2.5,5c-0.7,1.4-1.4,2.8-2.1,4.2c-0.7,1.4-1.4,2.8-2.1,4.3
		c-0.8,1.5-1.5,3-2.3,4.5C2.7,45.6,2,47,1.3,48.5c0,0.5-0.2,1,0.6,1c0.2-0.3,0.5-0.6,0.7-0.9c0.6-1.1,1.1-2.1,1.7-3.2
		C5,44,5.7,42.7,6.4,41.3c0.8-1.5,1.5-3,2.3-4.5c0.7-1.4,1.4-2.8,2.2-4.3c0.8-1.6,1.6-3.1,2.4-4.7c0.5-1.1,1.1-2.2,1.7-3.5
		c0.3,0.5,0.4,0.8,0.6,1.1c0.6,1.4,1.2,2.7,1.8,4.1c0.4,0.9,0.7,1,1.4,0.2c0.7-1.7,1.5-3.4,2.3-5.4c0.9,2.1,1.8,3.9,2.6,5.7
		c0.5,0.2,0.8,0,1.1-0.5c0.4-0.9,0.8-1.8,1.2-2.6c0.1-0.4,0.3-0.8,0.4-1.1c0.2-0.4,0.4-0.8,0.8-1.4c0.8,1.8,1.5,3.4,2.2,5
		c0.1,0.3,0.4,0.5,0.7,0.7c0.2-0.2,0.5-0.4,0.7-0.7c0.3-0.6,0.6-1.2,0.9-1.7c0.5-1.1,1-2.3,1.5-3.6c0.3,0.4,0.4,0.7,0.5,0.9
		c3.2,6.5,6.4,12.9,9.6,19.4c0.1,0.1,0.1,0.3,0.2,0.4c0.7,1.3,1.3,2.6,2,3.9c0.2,0.5,0.5,0.8,1.1,0.6C45.9,48.9,45.9,48.5,45.7,48.1
		z M31.7,23.2c-0.4,1-0.9,2.1-1.4,3.1c-0.2,0.6-0.5,1.2-0.9,2c-0.5-1-0.8-1.8-1.2-2.6c-0.4-0.9-0.8-1.8-1.2-2.6
		c-0.1-0.2-0.4-0.5-0.6-0.5s-0.5,0.3-0.6,0.5c-0.3,0.7-0.6,1.4-0.9,2c-0.1,0-0.1,0.1-0.2,0.1c-0.4,1-0.8,1.9-1.3,3.2
		c-0.7-1.6-1.3-3-1.9-4.3c-0.1-0.2-0.2-0.5-0.3-0.7c-0.5-1.1-0.8-1.1-1.5-0.2c-0.7,1.7-1.4,3.3-2.2,5.2c-0.8-1.9-1.6-3.5-2.2-5.1
		c-0.1-0.2,0-0.5,0.1-0.7c0.7-1.3,1.3-2.6,2-3.9c0.8-1.5,1.6-3.1,2.4-4.6c0.1-0.2,0.1-0.4,0.2-0.6c0.8-1.5,1.6-3,2.4-4.5
		c0.4-0.9,0.8-1.7,1.4-2.8c1.4,2.9,2.8,5.6,4,8c-0.9,0.8-1.7,1.5-2.4,2.2c-0.9,2.6-0.1,4.3,2.4,5.3c1.1,0,2.1,0.1,3.2,0.1
		C31.6,21.8,32,22.4,31.7,23.2z M31.6,20.6c-1,0-2,0-3,0c-1.5,0-2.6-1-2.7-2.4s0.8-2.4,2.4-2.7c0.3,0,0.5-0.1,0.7-0.2
		c0-0.5,0-1,0-1.4c0-1.3,0.8-2.3,2-2.7c1.2-0.4,2.6-0.1,3.2,1c0.6,1.1,1.2,1.2,2.2,0.6c0.1,0,0.2,0,0.3,0c1-0.1,1.7,0.3,2.1,1.2
		c0.3,0.6,0.6,0.7,1.2,0.7c1.7,0,2.9,1.2,2.9,2.7c0.1,1.6-1,2.8-2.7,3C37.3,20.6,34.5,20.6,31.6,20.6z"/>
	<path class="st0" d="M3.8,15.8c1.4,0,2.9,0,4.3,0s2.7,0,4.1,0s2.5-0.6,3.3-1.8c0.6-1.7,0.2-3.1-1.1-4.2c-0.7-0.3-1.5-0.4-2-0.9
		c-0.8-0.8-1.6-1.2-2.7-1.1c-0.3,0-0.6,0-0.7-0.1c-1-1.2-2.3-1.4-3.7-1c-1,0.5-1.8,1.1-1.9,2.1c-0.2,1-0.7,1.4-1.5,1.7
		C-0.1,12.9,0.8,15.2,3.8,15.8z M3.4,11.1c0.8-0.1,1.1-0.4,1-1.2s0.2-1.5,1-1.9c1.1-0.5,2.1-0.4,2.7,0.6c0.4,0.7,0.8,1,1.6,0.5
		c0.1-0.1,0.4,0,0.6-0.1c0.4,0.2,0.9,0.3,1,0.6c0.3,0.7,0.8,0.9,1.6,0.9c1,0,1.7,1,1.7,2s-0.8,1.9-1.8,2c-0.3,0-0.6,0-1,0
		c-1.4,0-2.7,0-4.1,0c-1.3,0-2.6,0-4,0c-1.1,0-1.8-0.7-1.9-1.7C1.8,12.1,2.5,11.3,3.4,11.1z"/>
</g>
</svg>
